<?xml version="1.0" encoding="utf-8"?>
<svg version="1.1" xmlns:xlink="http://www.w3.org/1999/xlink" width="20px" height="20px" xmlns="http://www.w3.org/2000/svg">
  <g transform="matrix(1 0 0 1 -2 -2 )">
    <path d="M 19.821428748823344 12.033782886456265  C 19.94047636047951 11.359718464014737  20 10.685654498134236  20 10.011590075692705  C 20 9.214968510437862  19.940476415915377 8.540904453245156  19.76190499843112 8.050675790679696  C 19.821428804259206 7.560447128114239  19.523809021191013 7.192775083316909  19.04761857456633 7.070217917675546  C 19.04761857456633 7.070217917675546  18.988094824174112 7.070217917675546  18.988094824174112 7.070217917675546  C 18.154761520406574 6.8863821692134985  17.559523839089607 6.457432386233393  17.083333392464926 5.599532203915789  C 16.666666740581157 4.864189210067601  16.547619350668445 4.0062894386549255  16.845238390896043 3.209667873400082  C 17.0238098083803 2.8419963764759886  16.904761054745304 2.351767531286119  16.54761821977679 2.0453746057686812  C 15.65476107691965 1.1874744234510786  14.523809021191012 0.513409943939419  13.273809109888397 0.08445985278061738  C 12.916666274919885 -0.09937589568142939  12.440475473505668 0.023181361272141182  12.142856433278066 0.3908528581962347  C 11.607142147563783 1.0649172806377654  10.833333392464926 1.4325887090777043  9.940476249607782 1.4325887090777043  C 9.166666784929848 1.4325887090777043  8.39285652197545 1.0649172806377654  7.7380946467793414 0.3908528581962347  C 7.321427994895572 -0.03809723296256681  6.90476101039661 0.02318126995993512  6.607141970169012 0.08445985278061738  C 5.297618219776793 0.5746885153460755  4.285714019622133 1.1874745147632846  3.452380715854594 1.9840960800181278  C 3.0357140639708247 2.2292104113008575  2.9166664412274814 2.7194389597260575  3.095237858711737 3.087110456650151  C 3.3333330820240774 4.006289256030514  3.2738095090266266 4.864189210067601  2.8571428571428577 5.599532203915789  C 2.5000000221743464 6.334875197763976  1.785714197016901 6.825103586392816  0.9523808932493627 7.070217917675546  C 0.8928570874212776 7.070217917675546  0.8333333924649231 7.070217860605416  0.8333333924649231 7.131496443426099  C 0.5357143522373241 7.315332191888144  0.2976191621865027 7.560446557412951  0.2380953563584175 7.866839482930388  C 0.2380953563584175 7.866839482930388  0.2380953563584175 7.92811873917859  0.2380953563584175 7.92811873917859  C 0.11904774470224715 8.60218316162012  0 9.214968556093964  0 9.950311549942152  C 0 10.746933115196995  0.05952393887416198 11.4209971723897  0.2380953563584175 11.91122583495516  C 0.17857155053033233 12.278897331879254  0.3571428571428572 12.646569376676581  0.892857142857143 12.891683707959311  C 0.892857142857143 12.891683707959311  0.9523808932493627 12.891683707959311  0.9523808932493627 12.891683707959311  C 1.785714197016901 13.075519456421357  2.380952410518176 13.50446960465029  2.8571428571428577 14.362369786967893  C 3.2738095090266266 15.09771278081608  3.3928568989393355 15.955613647975229  3.095237858711737 16.752235213230072  C 2.9166664412274814 17.11990671015417  3.035714130493863 17.61013427697315  3.392856965462374 17.916527202490585  C 4.226190269229912 18.71314876774543  5.357143389327165 19.448492811683987  6.666667139719385 19.938721474249444  C 6.666667139719385 19.938721474249444  6.726190890111605 19.938721474249444  6.726190890111605 19.938721474249444  C 6.7857146959396895 19.938721474249444  6.785714585067959 20  6.845238390896045 20  C 6.845238390896045 20  6.964285891680484 20  6.964285891680484 20  C 7.261904931908083 20  7.559523173859221 19.87744171578411  7.7976183971715605 19.63232738450138  C 8.333332682885846 18.95826296205985  9.107142857142856 18.590592446741972  10 18.590592446741972  C 10.773809464677932 18.590592446741972  11.547618308474178 18.95826296205985  12.202380183670288 19.63232738450138  C 12.440475406982628 19.87744171578411  12.6785713176997 20  12.976190357927297 20  C 13.095237969583469 20  13.273808999016666 20.000000057070125  13.392856610672837 19.938721474249444  C 14.76190420015466 19.387214194621226  15.714284827311868 18.774427293495982  16.607141970169014 17.97780572824114  C 16.964284805137524 17.732691396958412  17.14285730916474 17.242463761655273  16.964285891680483 16.874792264731177  C 16.72619066836814 15.955613465350815  16.785714241365593 15.09771278081608  17.202380893249362 14.362369786967893  C 17.559523728217876 13.627026793119704  18.273809021191013 13.13679803924204  19.107142324958552 12.891683707959311  C 19.166666130786638 12.891683707959311  19.226189825742992 12.891683765029441  19.226189825742992 12.830405182208757  C 19.52380886597059 12.646569433746711  19.76190494299526 12.401454337724259  19.821428748823344 12.095061412206821  C 19.821428748823344 12.095061412206821  19.821428748823344 12.033782886456265  19.821428748823344 12.033782886456265  Z M 1.249999822605231 10.011590075692705  C 1.1904760167771458 9.39880422465783  1.2500000665230384 8.908575790372888  1.369047678179209 8.234511367931356  C 2.5 7.928118442413919  3.452380893249363 7.192775151801063  3.9880951789636487 6.212317826670147  C 4.523809464677934 5.170581884476472  4.702380471936786 4.006289256030514  4.404761431709188 2.841996171023525  C 5.178570896387122 2.1679317485819944  6.071428571428572 1.6164243319854676  7.142857142857144 1.187474240826666  C 8.035714285714286 2.045374423144269  9.047618929355869 2.535603177021933  10.17857125117666 2.535603177021933  C 11.369047412087056 2.535603177021933  12.499999689559155 2.045374423144269  13.214285359496177 1.187474240826666  C 14.226190091835145 1.5551457377507596  15.119047500784442 2.106653177175338  15.892856965462375 2.841996171023525  C 15.595237925234775 4.067567873093274  15.714285137752718 5.231860501539232  16.309523218207914 6.212317826670147  C 16.845237503922203 7.254053768863824  17.73809500156888 7.989396968164475  18.869047323389672 8.295789893681912  C 18.98809493504584 8.78601855624737  19.04761857456633 9.39880422465783  19.04761857456633 10.011590075692705  C 19.04761857456633 10.501818738258164  18.98809493504584 10.992047309511417  18.869047323389672 11.666111731952945  C 17.678571162479276 12.03378322887704  16.785713664832592 12.76912720433144  16.309523218207914 13.749584529462357  C 15.773808932493626 14.791320471656032  15.595237925234775 15.955613282726402  15.892856965462375 17.119906367733392  C 15.119047500784442 17.79397079017492  14.226190180532527 18.345477932834832  13.154761609103955 18.774428023993632  C 12.261904466246813 17.916527841676025  11.190476072213011 17.487577522236716  10.11904750078444 17.487577522236716  C 8.928571339874043 17.487577522236716  7.857142857142858 17.977806367426584  7.083333392464923 18.835706549744188  C 6.071428660125956 18.468035052820092  5.178570896387122 17.916527887332133  4.404761431709188 17.181184893483948  C 4.702380471936786 15.9556131914142  4.583333259418847 14.791320380343828  3.9880951789636487 13.810863055212913  C 3.452380893249363 12.769127113019236  2.55952375039222 12.033783183220939  1.4285714285714288 11.727390257703501  C 1.3095238169152585 11.23716159513804  1.249999822605231 10.563097355320924  1.249999822605231 10.011590075692705  Z " fill-rule="nonzero" fill="#000000" stroke="none" transform="matrix(1 0 0 1 2 2 )" />
  </g>
</svg>