<?xml version="1.0" encoding="utf-8"?>
<svg version="1.1" xmlns:xlink="http://www.w3.org/1999/xlink" width="10px" height="18px" xmlns="http://www.w3.org/2000/svg">
  <g transform="matrix(1 0 0 1 -23 -9 )">
    <path d="M 5.34142655221399 17.988281441190328  C 5.229136658850263 17.995738319482186  5.114294898670284 18  4.999817533191157 18  C 4.815341277324404 18  4.631958309866692 17.990057235987088  4.454773598743916 17.97088240473313  C 3.1313569934187333 17.83097715800025  1.9410114012827862 17.195721249866423  1.1032121279012221 16.181230691893568  C 1.0004012513968723 16.056949383148986  0.9016015241847517 15.92450075384958  0.8100925507257728 15.788146406731855  C 0.2803613296200596 14.998427470150792  0 14.079101709302655  0 13.130302713783236  C 0 12.920089754569002  0.013854482622595445 12.708102052457546  0.04156237872632827 12.50072980616264  C 0.10609261055597191 12.014612359144701  0.563272917998081 11.67124023682955  1.0623796164102637 11.73444615854659  C 1.5614863148224465 11.797296991148713  1.9140334767209068 12.242579181485288  1.8491386676540644 12.728696628503227  C 1.8314807881781758 12.861994346034075  1.8225897548660244 12.99625555275028  1.8225229908179141 13.130658150003839  C 1.8225229908179141 13.733600025887123  2.0000732440128637 14.317365988985932  2.33621378701406 14.818397195762337  C 2.3945462014652197 14.905394113576742  2.4568877225399692 14.98884082598736  2.5217825316068114 15.067670685692699  C 3.055524128398333 15.713933518255688  3.8116592480186773 16.117670112827224  4.651281451047271 16.20608738710129  C 4.652375183777485 16.20608738710129  4.653832604083933 16.20644282332189  4.654926336814148 16.20644282332189  C 4.832840202411321 16.225972743690768  5.027160400062929 16.230233730526336  5.21127208738469 16.217450509690362  C 5.212730397691643 16.217450509690362  5.2141885300799835 16.21745016291538  5.2156468403869365 16.217095073469764  C 6.875568539873893 16.109147880943315  8.176017274711347 14.75341657347804  8.176017274711347 13.130302713783236  C 8.176017274711347 12.491496794963448  7.97805121776568 11.878966268476557  7.603630021397572 11.358050037400872  C 7.236864955702844 10.84778649670466  6.729009585738038 10.461094069591208  6.135112666578846 10.239518258699652  C 5.968542426620528 10.177353349259434  5.824354758700997 10.068962826580353  5.720410114179718 9.927770351116683  C 5.61646546965844 9.78657787565301  5.5573293503899635 9.61878814776129  5.550328796288714 9.445184408125547  C 5.543419518509658 9.271577502208682  5.588959875979869 9.099811983480402  5.681306586962791 8.951168698253973  C 5.773653297945714 8.802525413027544  5.908747709151467 8.683537169656981  6.06985185475286 8.608948636636601  C 7.349154605684776 8.017014514849729  8.175652341093661 6.743308886056022  8.175652341093661 5.364496472879475  C 8.175652341093661 4.512991979507031  7.864303536985577 3.6877647071218185  7.2988436944811355 3.0404366495440405  C 6.740675396720671 2.3998552428197097  5.967406268246681 1.9691312913610757  5.122680001281718 1.8270955099386985  C 4.937839159485559 1.7958476381950954  4.748624016681917 1.7784485583496883  4.560501988443175 1.775252753140695  C 4.057384914345184 1.7663755168017965  3.6567127313768144 1.3615731130620103  3.6658271709989925 0.8715496603820156  C 3.67494161062117 0.38152620770202117  4.092383738046198 -0.009071975177895777  4.594042503195394 0.0001603502759190352  C 4.874767236604711 0.005131602646867212  5.156950296347237 0.031052878776020695  5.43257094843577 0.07756959516001101  C 6.696926023950326 0.289913089063744  7.853366376329337 0.9333349462616436  8.688978203672121 1.8899459531051757  C 9.534433642495896 2.8579198116260276  10 4.091855865916742  10 5.364496472879475  C 10 6.398516991434673  9.697034968595682 7.403065358965598  9.123918995417858 8.268773416934692  C 8.856491374243209 8.672691056751496  8.534888112799202 9.04002159016169  8.167632702324537 9.36102838101631  C 8.519450057833078 9.641904133360825  8.832620696370112 9.97036072652512  9.098033185817076 10.339653744677712  C 9.688284315219867 11.160265493518436  10 12.125399587311094  10 13.130302713783236  C 10 14.373470831082006  9.51912124207382 15.556983164339583  8.645593382062355 16.462816368488145  C 7.777169585987261 17.363678341959865  6.603594112152111 17.905190512105992  5.34142655221399 17.988281441190328  Z " fill-rule="nonzero" fill="#808080" stroke="none" transform="matrix(1 0 0 1 23 9 )" />
  </g>
</svg>