<?xml version="1.0" encoding="utf-8"?>
<svg version="1.1" xmlns:xlink="http://www.w3.org/1999/xlink" width="25px" height="27px" xmlns="http://www.w3.org/2000/svg">
  <g transform="matrix(1 0 0 1 -2 -2 )">
    <path d="M 25 12.433458801011776  C 25 19.257613135791818  19.372749128630904 24.8519194603483  12.5 24.866917602023552  C 5.627250871369099 24.866917602023552  0 19.272611083659584  0 12.433458801011776  C 0 5.594306518363967  5.627250871369099 0  12.5 0  C 19.372749128630904 0  25 5.594306518363967  25 12.433458801011776  Z M 2.1458582088510965 12.433458801011776  C 2.1458582088510965 18.10275595267342  6.797719188566842 22.72218334420873  12.5 22.72218334420873  C 18.20228081143316 22.72218334420873  22.854141567542047 18.08775711084679  22.854141567542047 12.41845995918515  C 22.854141567542047 6.749162807523504  18.20228081143316 2.1297363099470603  12.5 2.1297363099470603  C 6.797719188566842 2.1297363099470603  2.1458582088510965 6.7641616493501315  2.1458582088510965 12.433458801011776  Z M 22.37395030890304 26.681693430912144  C 22.37395030890304 26.681693430912144  20.28811511295438 24.356982010766444  20.28811511295438 24.356982010766444  C 19.852941058090487 23.952032194264742  19.95798440526407 23.24711984457234  20.393158460127964 22.947157032019486  C 20.828332514991857 22.647194219466634  21.593638619187217 22.64719374455099  21.92377066851868 23.05214356105269  C 21.92377066851868 23.05214356105269  24.009604075612465 25.376854981198388  24.009604075612465 25.376854981198388  C 24.444778130476358 25.78180479770009  24.33973657215765 26.486717147392493  23.904562517293755 26.786679959945342  C 23.469388462429862 27.086642772498195  22.704082358234505 27.08664324741384  22.37395030890304 26.681693430912144  Z " fill-rule="nonzero" fill="#418cfd" stroke="none" transform="matrix(1 0 0 1 2 2 )" />
  </g>
</svg>