<?xml version="1.0" encoding="utf-8"?>
<svg version="1.1" xmlns:xlink="http://www.w3.org/1999/xlink" width="8px" height="8px" xmlns="http://www.w3.org/2000/svg">
  <g transform="matrix(1 0 0 1 -8 -8 )">
    <path d="M 7.813747395765876 5.310043742910805  C 8.062084432693268 4.393013159312762  8.062084432693268 3.5371174317280536  7.813747395765876 2.6812222507361465  C 7.68957887730218 2.3755453971283655  7.379158286552715 2.1921397017407065  7.068736978829381 2.253275070184793  C 6.758315671106046 2.375545807072965  6.572063251897436 2.742357994962783  6.696231770361133 3.048034848570564  C 6.882484548056677 3.5371177961232543  6.882484548056677 4.148472186579816  6.696231770361133 4.820961250852116  C 6.44789473343374 5.493450315124415  5.9512201045024105 6.043668232563941  5.330377489055741 6.410480443228457  C 4.6474506259413175 6.716157296836238  3.902439283877247 6.7772925400194755  3.219512420762823 6.53275106624313  C 2.5365855576483995 6.288209592466786  1.9778274442795662 5.799126827111695  1.6053218888884777 5.187773119896132  C 1.2949005811651426 4.515284055623833  1.2328163566255788 3.7816594065477993  1.481153393552971 3.1091703422755006  C 1.7294904304803633 2.436681278003202  2.2261647818734205 1.8864628139708752  2.8470073973200902 1.519650603306358  C 3.529934260434514 1.2139737496985767  4.274945417473069 1.1528385065153406  4.957872280587493 1.3973799802916855  C 5.268293588310828 1.519650717179858  5.640798380471667 1.3362442360650495  5.764966898935363 1.030567382457268  C 5.88913541739906 0.7248905288494869  5.70288299819045 0.3580783637343694  5.392461690467115 0.23580762684619688  C 4.399113542757546 -0.13100458381832059  3.2815969922252277 -0.06986863461938417  2.2882488445156586 0.4192143129333058  C 1.2949006968060897 0.9082972604859958  0.549889239101072 1.7030563556307665  0.239467931377737 2.6812222507361465  C -0.13303762401335145 3.6593881458415263  -0.0709535382429237 4.7598250283567785  0.42572053561186085 5.737990923462158  C 0.9223946094666454 6.716156818567539  1.729490106685712 7.449781900362875  2.722838254395281 7.755458753970656  C 3.0953438097863697 7.877729490858828  3.592017953025722 8  4.026607779212753 8  C 5.764967083960879 8  7.2549890279869595 6.899563299682348  7.813747395765876 5.310043742910805  Z " fill-rule="nonzero" fill="#000000" stroke="none" transform="matrix(1 0 0 1 8 8 )" />
  </g>
</svg>