<?xml version="1.0" encoding="utf-8"?>
<svg version="1.1" xmlns:xlink="http://www.w3.org/1999/xlink" width="16px" height="14px" xmlns="http://www.w3.org/2000/svg">
  <g transform="matrix(1 0 0 1 -17 -17 )">
    <path d="M 1.94136484052066 8.1004917249568  C 1.94136484052066 8.1004917249568  1.9379414902283985 8.103850159019675  1.9379414902283985 8.103850159019675  C 1.9379414902283985 8.103850159019675  5.010914949467705 8.103850159019675  5.010914949467705 8.103850159019675  C 7.679864502724411 8.103850159019675  9.864327050769356 5.961627136966983  9.864327050769356 3.3442868835345787  C 10.16049656538439 0.9368039286761852  12.856836880166739 1.7594443149345282  12.49047688863042 3.948675647254268  C 12.180611687129813 6.200024720738907  11.247594038459466 7.998082461596396  9.70511579276649 9.101092451720909  C 8.101006956088446 10.247752718320628  5.993580075343747 10.816885929800787  3.7389254585392244 10.816885929800787  C 3.7389254585392244 10.816885929800787  3.7389254585392244 10.81016906167504  3.7389254585392244 10.81016906167504  C 3.1140591321395577 10.81016906167504  2.5028888599727606 10.771555830884207  1.9122617916033875 10.692649486820514  C 1.0237532477582834 10.575129401620423  0.20885884745356484 11.186234663215155  0.0890214749598122 12.057562176500952  C -0.030815897533940432 12.928889689786747  0.5923379680045401 13.728025250457588  1.480846511849644 13.845545335657679  C 2.2615013990217787 13.949634556550931  3.016477648794431 13.999999999999998  3.7406377867472194 13.999999999999998  C 3.7406377867472194 13.999999999999998  3.7406377867472194 13.993285693608854  3.7406377867472194 13.993285693608854  C 6.659533707298325 13.993285693608854  9.438049571966927 13.221010770813132  11.612241905869622 11.666387864550844  C 13.84806499402285 10.068114601759142  15.428204745996485 7.680778408676083  15.866467134498416 4.497663057609569  C 15.945217410621135 3.928530046264927  15.986306598830954 3.3258188184383406  15.986306598830954 2.68785263877877  C 15.986306598830954 2.68785263877877  15.999999999999998 2.68785263877877  15.999999999999998 2.68785263877877  C 15.999999999999998 2.68785263877877  15.999999999999998 1.9055052957458554  15.999999999999998 1.9055052957458554  C 15.999999999999998 0.8578976996904143  15.126899716146658 0.001679217031436326  14.058635159479339 0.001679217031436326  C 14.058635159479339 0.001679217031436326  8.234538025669902 0.001679217031436326  8.234538025669902 0.001679217031436326  C 7.166273469002582 0.001679217031436326  6.293173185149242 0.8578976996904143  6.293173185149242 1.9055052957458554  C 6.293173185149242 1.9055052957458554  6.293173185149242 4.084662766852691  6.293173185149242 4.084662766852691  C 6.293173185149242 4.835112431329502  5.666595755032576 5.449575456533127  4.903060476467405 5.449575456533127  C 4.137813277857905 5.449575456533127  3.5129464616618398 4.835112431329502  3.5129464616618398 4.084662766852691  C 3.5129464616618398 4.084662766852691  3.5129464616618398 2.414199182550488  3.5129464616618398 2.414199182550488  C 3.5129464616618398 2.414199182550488  3.5060984549535883 2.414199182550488  3.5060984549535883 2.414199182550488  C 3.5060984549535883 2.414199182550488  3.5060984549535883 1.7191519121427499  3.5060984549535883 1.7191519121427499  C 3.5060984549535883 0.7739546201523976  2.716884130825271 0  1.7530492274767941 0  C 0.7892143241283176 0  0 0.7739546201523976  0 1.7191519121427499  C 0 1.7191519121427499  0 6.196666927109685  0 6.196666927109685  C 0 7.244274523165126  0.8731002838533392 8.1004917249568  1.94136484052066 8.1004917249568  Z " fill-rule="nonzero" fill="#ffffff" stroke="none" transform="matrix(1 0 0 1 17 17 )" />
  </g>
</svg>