<?xml version="1.0" encoding="utf-8"?>
<svg version="1.1" xmlns:xlink="http://www.w3.org/1999/xlink" width="28px" height="36px" xmlns="http://www.w3.org/2000/svg">
  <g transform="matrix(1 0 0 1 -4 0 )">
    <path d="M 13.632716055984272 0.22265425153823118  C 13.632716055984272 0.22265425153823118  13.704484822188375 0.169509680909244  13.704484822188375 0.169509680909244  C 13.852500115538982 0.05900565595182568  14.0321947579487 -0.00046083035253617497  14.21669551640004 0  C 14.401196274851387 0.000466208916399361  14.580589916731725 0.06083482474819801  14.72805171868531 0.17208117941236517  C 15.364624809599398 0.6507280985540851  15.881233857963064 1.2716410977806853  16.236881264886385 1.9855432649393574  C 16.592528671809713 2.6994454320980297  16.777423424787433 3.486685080238369  16.776892356628537 4.284785273513814  C 16.777522605403373 5.008476134133458  16.62560534309539 5.724120529667111  16.331108517266298 6.384753801058918  C 16.0366116914372 7.0453870724507235  15.606193433642815 7.636074612219718  15.068101005131844 8.118051688142545  C 15.068101005131844 8.118051688142545  15.068101005131844 16.138595988752172  15.068101005131844 16.138595988752172  C 15.068101005131844 16.138595988752172  18.59675589458873 12.598481275230492  18.59675589458873 12.598481275230492  C 18.556013359934674 11.87579735434676  18.66809054694435 11.152640206657201  18.925631549436936 10.476486410366835  C 19.183172551929516 9.800332614076472  19.58035273477903 9.1864748652511  20.091094369947797 8.675212848868139  C 20.653219049685205 8.110267284889796  21.338879439943412 7.684570032917923  22.093640581720628 7.4319180166392735  C 22.848401723497847 7.179266000360623  23.65147855520128 7.106616339486756  24.43911504397738 7.219736984456006  C 24.62188282275289 7.245770066484072  24.79133120695457 7.330489944684777  24.922094414253657 7.461214222807694  C 25.052857621552743 7.591938500930613  25.137902858047667 7.761635122186739  25.164498480614665 7.944903116398908  C 25.164498480614665 7.944903116398908  25.177312651155543 8.033191935779502  25.177312651155543 8.033191935779502  C 25.27083320482407 8.780886667868739  25.19946535768959 9.540064375475925  24.968256228410446 10.257033631715652  C 24.7370470991313 10.974002887955379  24.351644253377565 11.631250847535926  23.839304489711115 12.182295969230907  C 23.326964726044665 12.733341090925888  22.700203253119362 13.164723435057514  22.003344633873205 13.445933988314062  C 21.306486014627048 13.727144541570613  20.55655064006686 13.85131476757771  19.806579572555425 13.809662937756965  C 19.806579572555425 13.809662937756965  15 18.56267492023849  15 18.56267492023849  L 15 29.000439481837027  C 15 29.000439481837027  21.38294071723544 24.64258455614451  21.38294071723544 24.64258455614451  C 21.33547594325642 23.912966189463585  21.44393925237304 23.181594932219483  21.701066243367492 22.497441343063173  C 21.958193234361943 21.813287753906863  22.35804865069568 21.192141628282293  22.87386122488889 20.67559820761985  C 23.436077409589313 20.110527245579025  24.121879769563712 19.68475817471683  24.876800994895664 19.43210220202872  C 25.631722220227616 19.179446229340613  26.434966020081244 19.106865478725545  27.222737460296603 19.220124489056914  C 27.40535043593526 19.246328333740646  27.574606452508327 19.331122964609882  27.705201354842558 19.461832942659633  C 27.83579625717679 19.592542920709388  27.920715177219613 19.762147018983317  27.94726533555576 19.945290620999817  C 27.94726533555576 19.945290620999817  27.960081645000088 20.033579440380414  27.960081645000088 20.033579440380414  C 28.052450440938767 20.7718814552434  27.984059320768296 21.521499136444717  27.759627891912043 22.230710141968785  C 27.535196463055794 22.93992114749286  27.16006695436191 23.59183922001362  26.66012457584781 24.141483705702747  C 26.160182197333707 24.691128191391872  25.54732964588926 25.125413064794216  24.863852073437727 25.414371407751585  C 24.18037450098619 25.70332975070895  23.442544584678426 25.84008067354518  22.701273105886415 25.8151924334973  C 22.701273105886415 25.8151924334973  15.06724758265716 31.080790924250035  15.06724758265716 31.080790924250035  C 15.06724758265716 31.080790924250035  15.068101005131844 35.14378042002018  15.068101005131844 35.14378042002018  C 15.067859505550361 35.36225573083303  14.984472787991894 35.57239347870468  14.834979779723502 35.73125813820759  C 14.685486771455114 35.8901227977105  14.481171061094724 35.9857221439157  14.26377705903832 35.998525801601346  C 14.046383056981917 36.01132945928699  13.832320146388843 35.940371125736334  13.665325777911544 35.80014633499388  C 13.498331409434247 35.65992154425144  13.391010412616437 35.46101508725709  13.365290027668244 35.244068828113015  C 13.365290027668244 35.244068828113015  13.359309653635144 35.14378042002018  13.359309653635144 35.14378042002018  L 13.359309653635144 30.071902757267203  L 5.8705279730375945 24.904021947268735  C 5.8705279730375945 24.904021947268735  5.851731289560165 24.908307208116078  5.851731289560165 24.908307208116078  C 5.102778206407238 25.016808351078808  4.339158461807587 24.957221505283407  3.615935250809346 24.733843230814394  C 2.8927120398111046 24.51046495634538  2.2279084980925568 24.128861720136562  1.6694630664847583 23.61655105407391  C 1.6694630664847583 23.61655105407391  1.5011474071142985 23.455402071042514  1.5011474071142985 23.455402071042514  C 0.9487205155979535 22.90100251764738  0.5299031854956374 22.227265852833494  0.2766885162655969 21.485656279663758  C 0.023473847035556224 20.74404670649403  -0.05743918257221473 19.954184629461018  0.040130081375727426 19.176407103356915  C 0.040130081375727426 19.176407103356915  0.052945856094194256 19.088120429825516  0.052945856094194256 19.088120429825516  C 0.0795414765724187 18.904852435613346  0.16458618043025575 18.735155277894926  0.29534937937424854 18.604430999772003  C 0.42611257831824134 18.473706721649087  0.5955602022065846 18.38898524034815  0.7783279809820929 18.362952152033415  C 1.5659644697581971 18.24983151544639  2.3690418361874963 18.32248170440033  3.1238029779647114 18.575133720678984  C 3.878564119741926 18.827785736957637  4.5642242426372075 19.253482452467207  5.126348922374611 19.818428016445555  C 6.062083085704334 20.75543841636329  6.5997862170780754 22.019579368852103  6.626668841218503 23.34568480157601  C 6.626668841218503 23.34568480157601  13.359309653635144 27.991549169004998  13.359309653635144 27.991549169004998  L 13.359309653635144 18.355237824168523  C 13.359309653635144 18.355237824168523  8.827593000285695 13.809662937756965  8.827593000285695 13.809662937756965  C 8.146715732857071 13.848413847693884  7.464993398045349 13.750067994733728  6.822585980099032 13.520417486882751  C 6.180178562152716 13.290766979031774  5.590078128222678 12.934456414673438  5.087047106292807 12.472477010355213  C 5.087047106292807 12.472477010355213  4.918730912196486 12.312186367002802  4.918730912196486 12.312186367002802  C 4.366304020680142 11.757786813607666  3.9474872587240526 11.084050148793782  3.694272589494012 10.342440575624048  C 3.4410579202639715 9.600831002454315  3.360144882301109 8.810969461883607  3.4577141462490513 8.033191935779502  C 3.4577141462490513 8.033191935779502  3.470529920967518 7.944903116398908  3.470529920967518 7.944903116398908  C 3.497125541445742 7.761635122186739  3.5821702536586715 7.591938500930613  3.712933452602664 7.461214222807694  C 3.8436966515466566 7.330489944684777  4.013144509377565 7.24577007277074  4.195912288153073 7.219736984456006  C 4.983548776929177 7.106616339486756  5.786625341269684 7.179266000360623  6.541386483046899 7.4319180166392735  C 7.296147624824114 7.684570032917923  7.9818080150823265 8.110267284889796  8.54393269481973 8.675212848868139  C 9.054520629723731 9.186549366452926  9.451542717530302 9.800440241825283  9.708935116363989 10.476590484052913  C 9.966327515197674 11.152740726280541  10.078270377399965 11.87586025455136  10.037417212978255 12.598481275230492  C 10.037417212978255 12.598481275230492  13.35845516170874 15.931159965606806  13.35845516170874 15.931159965606806  C 13.35845516170874 15.931159965606806  13.359309653635144 8.117194421388158  13.359309653635144 8.117194421388158  C 12.849202972006339 7.660568106124165  12.435591381976074 7.105912961972275  12.142958042353346 6.4860598781336485  C 11.850324702730617 5.866206794295022  11.684617436111719 5.193754520812503  11.655644184245144 4.50850695091221  C 11.655644184245144 4.50850695091221  11.650517232686724 4.285642540268202  11.650517232686724 4.285642540268202  C 11.650517232686724 2.6844480920569307  12.385297941610991 1.2041144423101857  13.632716055984272 0.22265425153823118  Z M 26.27350280578299 21.036467813007125  C 26.27350280578299 21.036467813007125  26.285465692752634 20.890749631554716  26.285465692752634 20.890749631554716  C 26.285465692752634 20.890749631554716  26.191482275365487 20.896749425910834  26.191482275365487 20.896749425910834  C 25.394385149287828 20.96823009352326  24.647836795174026 21.319044433980118  24.08283148038091 21.887638209825308  C 24.08283148038091 21.887638209825308  23.942711915678316 22.035929264465484  23.942711915678316 22.035929264465484  C 23.45710533698424 22.583434908495924  23.1599456557391 23.273145040033505  23.09515003643775 24.003134370394438  C 23.09515003643775 24.003134370394438  23.090025223782774 24.09570845062237  23.090025223782774 24.09570845062237  C 23.090025223782774 24.09570845062237  23.182299657317117 24.090566995945238  23.182299657317117 24.090566995945238  C 23.979474118122475 24.019373997858626  24.726113776677092 23.66851574293323  25.290948313398246 23.099678212030764  C 25.844999267616544 22.545608582949743  26.19196826597761 21.817026225555576  26.27350280578299 21.036467813007125  Z M 1.8095842353649352 20.039579234736532  C 1.8095842353649352 20.039579234736532  1.7156002832519277 20.0344356342102  1.7156002832519277 20.0344356342102  C 1.7156002832519277 20.0344356342102  1.7267076088434492 20.180153815662614  1.7267076088434492 20.180153815662614  C 1.8084320348152372 20.960408992896344  2.1553881412699893 21.68865817367371  2.7092631706799115 22.242505875007264  C 3.274097707401064 22.811343405909728  4.020737633318616 23.162203815066544  4.817912094123974 23.23339680477094  C 4.817912094123974 23.23339680477094  4.910187062384175 23.23853825944807  4.910187062384175 23.23853825944807  C 4.910187062384175 23.23853825944807  4.9050606455516155 23.145964179220133  4.9050606455516155 23.145964179220133  C 4.840265026250266 22.4159748488592  4.54310668181978 21.726264717321627  4.057500103125703 21.178759073291182  C 4.057500103125703 21.178759073291182  3.9173789342455247 21.030468018651007  3.9173789342455247 21.030468018651007  C 3.352593124418486 20.462055567063004  2.606379842897542 20.111255694323788  1.8095842353649352 20.039579234736532  Z M 5.227167740447123 8.896362457772222  C 5.227167740447123 8.896362457772222  5.133184323059977 8.891219393708193  5.133184323059977 8.891219393708193  C 5.133184323059977 8.891219393708193  5.144291113925638 9.036938111622904  5.144291113925638 9.036938111622904  C 5.226015548252517 9.817193288856636  5.572971679772543 10.545442469633997  6.126846675762099 11.099290170967555  C 6.691681212483251 11.66812770187002  7.438321873648862 12.018985956795413  8.235496401294952 12.090178954882031  C 8.235496401294952 12.090178954882031  8.327770834829295 12.09532255540836  8.327770834829295 12.09532255540836  C 8.327770834829295 12.09532255540836  8.322644952722595 12.002748475180423  8.322644952722595 12.002748475180423  C 8.257849329243701 11.272759144819487  7.960690721627829 10.583046833903822  7.475084142933752 10.035541223402275  C 7.475084142933752 10.035541223402275  7.334962439327713 9.887251241686698  7.334962439327713 9.887251241686698  C 6.770176629500673 9.318838790098695  6.02396334797973 8.968038917359475  5.227167740447123 8.896362457772222  Z M 23.501843276433412 8.890362663416104  L 23.502696698908093 8.891219393708193  C 23.502696698908093 8.891219393708193  23.407859859046265 8.896362457772222  23.407859859046265 8.896362457772222  C 22.610762732968603 8.96784311700243  21.86421651775825 9.318657465841511  21.299211202965132 9.887251241686698  C 21.299211202965132 9.887251241686698  21.15994292183378 10.035541223402275  21.15994292183378 10.035541223402275  C 20.67402620214013 10.582933908589807  20.376563034725866 11.272657619329332  20.31152762011853 12.002748475180423  C 20.31152762011853 12.002748475180423  20.306402807463552 12.09532255540836  20.306402807463552 12.09532255540836  C 20.306402807463552 12.09532255540836  20.39867724099789 12.090178954882031  20.39867724099789 12.090178954882031  C 21.19585170180325 12.01898594841319  21.94249136035787 11.66812770187002  22.507325897079024 11.099290170967555  C 23.06137685129732 10.545220541886529  23.408347988561836 9.816639257416963  23.489882528367207 9.036080844868513  C 23.489882528367207 9.036080844868513  23.501843276433412 8.890362663416104  23.501843276433412 8.890362663416104  Z M 14.213705329383494 2.018426526272496  L 14.211996345530686 2.017569259518108  C 14.211996345530686 2.017569259518108  14.118012928143541 2.1290014648401123  14.118012928143541 2.1290014648401123  C 13.633570380808843 2.729020799835485  13.35845516170874 3.483330715596002  13.35845516170874 4.283928006759425  C 13.35845516170874 5.104240220366791  13.64638689077537 5.874836662131574  14.151334904918105 6.48085619382979  C 14.151334904918105 6.48085619382979  14.21285083745709 6.549430023708653  14.21285083745709 6.549430023708653  C 14.21285083745709 6.549430023708653  14.274366769996075 6.48085619382979  14.274366769996075 6.48085619382979  C 14.737449425437061 5.925409700728546  15.017692983040789 5.231101550823097  15.061267208624058 4.48793469465609  C 15.061267208624058 4.48793469465609  15.068101005131844 4.285642540268202  15.068101005131844 4.285642540268202  C 15.068101005131844 3.466187526357436  14.780170345516934 2.6955911516504414  14.275222331374199 2.089571619952225  C 14.275222331374199 2.089571619952225  14.213705329383494 2.018426526272496  14.213705329383494 2.018426526272496  Z " fill-rule="nonzero" fill="#808080" stroke="none" transform="matrix(1 0 0 1 4 0 )" />
  </g>
</svg>