<?xml version="1.0" encoding="utf-8"?>
<svg version="1.1" xmlns:xlink="http://www.w3.org/1999/xlink" width="32px" height="32px" xmlns="http://www.w3.org/2000/svg">
  <g transform="matrix(1 0 0 1 -2 -2 )">
    <path d="M 32 15.999998935433368  C 32 24.836463536264127  24.836463536264127 32  15.999998935433368 32  C 7.163534334602606 32  0 24.836463536264127  0 15.999998935433368  C 0 7.163534334602606  7.163534334602606 0  15.999998935433368 0  C 24.836463536264127 0  32 7.163534334602606  32 15.999998935433368  Z M 6.2649485448372175 25.735050922879466  C 8.846844657771769 28.316947035814017  12.348646370260266 29.767441959494565  15.999998935433368 29.76744195949457  C 19.65135150060647 29.767441959494565  23.153154809944915 28.316947035814017  25.735050922879466 25.735050922879466  C 28.316947035814017 23.153154809944915  29.767441959494573 19.65135150060647  29.76744195949457 15.999998935433368  C 29.76744195949457 12.348646370260266  28.316947035814017 8.846844657771769  25.735050922879466 6.2649485448372175  C 23.153154809944915 3.6830524319026665  19.65135150060647 2.2325580405054315  15.999998935433368 2.2325580405054297  C 12.348646370260266 2.2325580405054324  8.846844657771769 3.6830524319026665  6.2649485448372175 6.2649485448372175  C 3.6830524319026665 8.846844657771769  2.2325580405054337 12.348646370260266  2.2325580405054297 15.999998935433368  C 2.2325580405054324 19.65135150060647  3.6830524319026665 23.153154809944915  6.2649485448372175 25.735050922879466  Z M 12.106417806473763 8.855814163925961  C 13.106603839492626 7.831814174571628  14.487813972303968 7.331720958455952  16.25004647498701 7.331720958455952  C 17.77413941431536 7.331720958455952  19.012465010688913 7.736558216158924  19.96502313103684 8.593860511164975  C 20.917581251384767 9.427348849835557  21.39386104344829 10.570418221654748  21.39386104344829 11.999255335641225  C 21.39386104344829 13.166139063008373  21.08427921187471 14.142510208195965  20.488930436558814 14.90455667786014  C 20.2746048628073 15.166510147648738  19.607814451358955 15.785673528020391  18.488558636662745 16.762045538168373  C 18.074676122236202 17.102761618913092  17.734387415092495 17.524071015909286  17.488371672148077 18.000371799896072  C 17.226418202359476 18.47665082680233  17.107348370780574 19.00055883094615  17.107348370780574 19.572093716461993  C 17.107348370780574 19.572093716461993  17.107348370780574 19.976929244244186  17.107348370780574 19.976929244244186  L 14.559254909814571 19.976929244244186  C 14.559254909814571 19.976929244244186  14.559254909814571 19.572093716461993  14.559254909814571 19.572093716461993  C 14.559254909814571 18.690977465120472  14.702138182079484 17.928929930889662  15.035533504240634 17.3097671992383  C 15.345114903334023 16.642976488380587  16.250045942703693 15.666603413665975  17.726510969361104 14.356836081356844  C 17.726510969361104 14.356836081356844  18.131349690843194 13.904370777912105  18.131349690843194 13.904370777912105  C 18.56000083834622 13.356649881999443  18.798138906270097 12.785115362428384  18.798138871386378 12.16595263077702  C 18.798138871386378 11.332464292106438  18.560000405866028 10.689487537584192  18.10753533529524 10.213208477410229  C 17.631256308388984 9.736929450503972  16.940650410290633 9.498789521204504  16.083348115284583 9.498789521204504  C 15.011720279794726 9.498789521204504  14.225859687456545 9.832185109507313  13.749580660550288 10.522789776700495  C 13.320929513047261 11.094324662216334  13.106603706421799 11.90399864533896  13.106603706421799 12.951812524493349  C 13.106603706421799 12.951812524493349  10.60613895655171 12.951812524493349  10.60613895655171 12.951812524493349  C 10.60613895655171 11.213393978145776  11.106231773454898 9.856000196944825  12.106417806473763 8.855814163925961  Z M 14.583069265362527 21.73916174692723  C 14.916464587523677 21.405766424766078  15.34511540234963 21.262883187384883  15.821394462523594 21.262883152501164  C 16.321487479033028 21.262883152501164  16.750138693071467 21.40576639149837  17.08353401523262 21.73916174692723  C 17.416929337393768 22.04874314602062  17.583626965206633 22.45358170116417  17.583626965206633 22.953674717673604  C 17.583626965206633 23.453767734183035  17.393114981845812 23.85860459267352  17.059719659684664 24.19199991483467  C 16.72632433752351 24.501581313928057  16.297673522697558 24.66827847437701  15.821394462523594 24.66827850926073  C 15.345115435617338 24.66827850926073  14.916464620791384 24.501580881447865  14.583069265362527 24.168185559286712  C 14.421102954238938 24.01069483598688  14.29315708212932 23.82165907386695  14.207140979893662 23.612762823204093  C 14.121124877658005 23.403866572541233  14.078865418827542 23.17954972490933  14.082975250821878 22.953674717673604  C 14.08297525082188 22.45358170116417  14.249673943201378 22.04874314602062  14.583069265362527 21.73916174692723  Z " fill-rule="nonzero" fill="#808080" stroke="none" transform="matrix(1 0 0 1 2 2 )" />
  </g>
</svg>