<?xml version="1.0" encoding="utf-8"?>
<svg version="1.1" xmlns:xlink="http://www.w3.org/1999/xlink" width="16px" height="15px" xmlns="http://www.w3.org/2000/svg">
  <g transform="matrix(1 0 0 1 -1 -1 )">
    <path d="M 8.428634653989244 1.757409530586482  C 8.428634653989244 1.9062572084750509  8.300927488917248 2.027061129660549  8.143574743582095 2.027061129660549  C 8.143574743582095 2.027061129660549  7.713705366052541 2.027061129660549  7.713705366052541 2.027061129660549  C 7.556352620717389 2.027061129660549  7.428646035600084 1.9062572084750509  7.428646035600084 1.757409530586482  C 7.428646035600084 1.757409530586482  7.428646035600084 0.2696515990740674  7.428646035600084 0.2696515990740674  C 7.428646035600084 0.12080392118549853  7.556352620717389 0  7.713705366052541 0  C 7.713705366052541 0  8.143574743582095 0  8.143574743582095 0  C 8.300927488917248 0  8.428634653989244 0.12080392118549853  8.428634653989244 0.2696515990740674  C 8.428634653989244 0.2696515990740674  8.428634653989244 1.757409530586482  8.428634653989244 1.757409530586482  Z M 3.9598540862991434 3.037355732663964  C 4.071217267266538 3.1426996264357245  4.071217267266538 3.3132993206766024  3.9598540862991434 3.4186432144483634  C 3.9598540862991434 3.4186432144483634  3.655790800483189 3.7062715867940352  3.655790800483189 3.7062715867940352  C 3.5444276195157944 3.811615480565796  3.3638902066748293 3.811615480565796  3.2527170696107297 3.7062715867940352  C 3.2527170696107297 3.7062715867940352  2.1406055205452215 2.6542707381346786  2.1406055205452215 2.6542707381346786  C 2.0292423395778267 2.548926844362918  2.0292423395778267 2.3781473782747664  2.1406055205452215 2.2729832563502788  C 2.1406055205452215 2.2729832563502788  2.4446688063611752 1.9853548840046067  2.4446688063611752 1.9853548840046067  C 2.5560319873285704 1.8800109902328466  2.7365696901468817 1.8800109902328466  2.8477428272109817 1.9853548840046067  C 2.8477428272109817 1.9853548840046067  3.9598540862991434 3.037355732663964  3.9598540862991434 3.037355732663964  Z M 1.8578265719436333 7.026941167469121  C 2.0151793172787857 7.026941167469121  2.14288590239609 7.147745088654619  2.14288590239609 7.296592766543188  C 2.14288590239609 7.296592766543188  2.14288590239609 7.70322729016967  2.14288590239609 7.70322729016967  C 2.14288590239609 7.852074968058237  2.0151793172787857 7.972878340636153  1.8578265719436333 7.972878340636153  C 1.8578265719436333 7.972878340636153  0.28505933045245674 7.972878340636153  0.28505933045245674 7.972878340636153  C 0.12770658511730418 7.972878340636153  0 7.852074968058237  0 7.70322729016967  C 0 7.70322729016967  0 7.296592766543188  0 7.296592766543188  C 0 7.147745088654619  0.12770658511730418 7.026941167469121  0.28505933045245674 7.026941167469121  C 0.28505933045245674 7.026941167469121  1.8578265719436333 7.026941167469121  1.8578265719436333 7.026941167469121  Z M 3.3538179613563144 11.254179841172984  C 3.464991098420414 11.148835947401224  3.6455288012387257 11.148835947401224  3.7568919822061204 11.254179841172984  C 3.7568919822061204 11.254179841172984  4.060955268022074 11.541808213518657  4.060955268022074 11.541808213518657  C 4.1723184489894685 11.647152107290417  4.1723184489894685 11.817930750467193  4.060955268022074 11.92309487239168  C 4.060955268022074 11.92309487239168  2.948843718956566 12.97509599535483  2.948843718956566 12.97509599535483  C 2.8374805379891708 13.08043988912659  2.656943125148206 13.08043988912659  2.545769988084106 12.97509599535483  C 2.545769988084106 12.97509599535483  2.2417067022681523 12.687467623009157  2.2417067022681523 12.687467623009157  C 2.130343521300757 12.582123729237397  2.130343521300757 12.411345086060619  2.2417067022681523 12.306180964136132  C 2.2417067022681523 12.306180964136132  3.3538179613563144 11.254179841172984  3.3538179613563144 11.254179841172984  Z M 7.571365925965449 13.242590469413518  C 7.571365925965449 13.09374279152495  7.699072511082753 12.97293887033945  7.856425256417905 12.97293887033945  C 7.856425256417905 12.97293887033945  8.286294633947461 12.97293887033945  8.286294633947461 12.97293887033945  C 8.443647379282615 12.97293887033945  8.57135454435461 13.09374279152495  8.57135454435461 13.242590469413518  C 8.57135454435461 13.242590469413518  8.57135454435461 14.730348400925932  8.57135454435461 14.730348400925932  C 8.57135454435461 14.879196078814502  8.443647379282615 15  8.286294633947461 15  C 8.286294633947461 15  7.856425256417905 15  7.856425256417905 15  C 7.699072511082753 15  7.571365925965449 14.879196078814502  7.571365925965449 14.730348400925932  C 7.571365925965449 14.730348400925932  7.571365925965449 13.242590469413518  7.571365925965449 13.242590469413518  Z M 12.040145913700856 11.827459404136091  C 11.928782732733461 11.722295282211604  11.928782732733461 11.551514444604495  12.040145913700856 11.446170550832734  C 12.040145913700856 11.446170550832734  12.344209199516811 11.158542178487064  12.344209199516811 11.158542178487064  C 12.455572380484206 11.053198284715304  12.636110373279864 11.053198284715304  12.747283510343964 11.158542178487064  C 12.747283510343964 11.158542178487064  13.859394189477435 12.210543301450212  13.859394189477435 12.210543301450212  C 13.97075737044483 12.31588719522197  13.97075737044483 12.486665838398748  13.859394189477435 12.591829960323237  C 13.859394189477435 12.591829960323237  13.55533090366148 12.879458332668907  13.55533090366148 12.879458332668907  C 13.443967722694085 12.984802226440667  13.263430889807811 12.984802226440667  13.152257752743711 12.879458332668907  C 13.152257752743711 12.879458332668907  12.040145913700856 11.827459404136091  12.040145913700856 11.827459404136091  Z M 14.142173138079022 7.837873146419561  C 13.984820392743869 7.837873146419561  13.857113807626563 7.717069225234061  13.857113807626563 7.568221547345494  C 13.857113807626563 7.568221547345494  13.857113807626563 7.161587023719012  13.857113807626563 7.161587023719012  C 13.857113807626563 7.012739345830443  13.984820392743869 6.891935424644944  14.142173138079022 6.891935424644944  C 14.142173138079022 6.891935424644944  15.714940669547545 6.891935424644944  15.714940669547545 6.891935424644944  C 15.872293414882698 6.891935424644944  16.000000000000004 7.012739345830443  16.000000000000004 7.161587023719012  C 16.000000000000004 7.161587023719012  16.000000000000004 7.568221547345494  16.000000000000004 7.568221547345494  C 16.000000000000004 7.717069225234061  15.872293414882698 7.837873146419561  15.714940669547545 7.837873146419561  C 15.714940669547545 7.837873146419561  14.142173138079022 7.837873146419561  14.142173138079022 7.837873146419561  Z M 12.646182328621034 3.610635021323279  C 12.534819147653637 3.71597891509504  12.354471198761276 3.71597891509504  12.243108017793881 3.610635021323279  C 12.243108017793881 3.610635021323279  11.939044731977926 3.323006648977607  11.939044731977926 3.323006648977607  C 11.827681551010532 3.2176627552058465  11.827681551010532 3.046883289117696  11.939044731977926 2.941719167193208  C 11.939044731977926 2.941719167193208  13.051156571020782 1.8897185928376425  13.051156571020782 1.8897185928376425  C 13.162519751988178 1.7843746990658822  13.343056584874448 1.7843746990658822  13.454229721938548 1.8897185928376425  C 13.454229721938548 1.8897185928376425  13.758293007754503 2.1773469651833146  13.758293007754503 2.1773469651833146  C 13.869656188721898 2.2826908589550756  13.869656188721898 2.4534700507394356  13.758293007754503 2.558634172663923  C 13.758293007754503 2.558634172663923  12.646182328621034 3.610635021323279  12.646182328621034 3.610635021323279  Z " fill-rule="nonzero" fill="#ffa600" stroke="none" transform="matrix(1 0 0 1 1 1 )" />
  </g>
</svg>