<?xml version="1.0" encoding="utf-8"?>
<svg version="1.1" xmlns:xlink="http://www.w3.org/1999/xlink" width="19px" height="19px" xmlns="http://www.w3.org/2000/svg">
  <g transform="matrix(1 0 0 1 -1 -1 )">
    <path d="M 1.3048192609262146 9.500000639582996  C 1.3048192609262146 4.99036200599619  4.978916333056832 1.3162650862481036  9.500000639582954 1.3162650862481036  C 14.009638969560497 1.3162650862481036  17.683734442733726 4.99036200599619  17.683734442733726 9.500000639582996  C 17.683734442733726 14.009639273169803  14.009638969560497 17.683735633282765  9.500000639582954 17.683735633282765  C 4.990362309605412 17.683735633282765  1.3048192609262146 14.009639273169803  1.3048192609262146 9.500000639582996  Z M 19 9.500000639582996  C 19.000000000000004 4.257831609645934  14.742169316593497 0  9.500000639582954 0  C 4.257831962572414 0  0 4.257831609645934  0 9.500000639582996  C 0 14.74216966952006  4.246386305815311 19  9.500000639582954 19  C 14.742169316593497 19  19.000000000209578 14.753615327047736  19 9.500000639582996  Z " fill-rule="nonzero" fill="#000000" stroke="none" transform="matrix(1 0 0 1 1 1 )" />
  </g>
</svg>