<?xml version="1.0" encoding="utf-8"?>
<svg version="1.1" xmlns:xlink="http://www.w3.org/1999/xlink" width="10px" height="16px" xmlns="http://www.w3.org/2000/svg">
  <g transform="matrix(1 0 0 1 -19 -17 )">
    <path d="M 10 10.960622608746124  C 10 13.739085057157103  7.757106654925975 16  5.000001081493335 16  C 2.2428955080606943 16  0 13.739442308212421  0 10.960622608746124  C 0 10.960622608746124  0 0.8929368863962763  0 0.8929368863962763  C 0 0.3996785353633241  0.396555385598878 0  0.8859593397439931 0  C 1.3753632938891083 0  1.7719186794879862 0.3996785353633241  1.7719186794879862 0.8929368863962763  C 1.7719186794879862 0.8929368863962763  1.7719186794879862 10.960622608746124  1.7719186794879862 10.960622608746124  C 1.7719186794879862 12.75471138454336  3.2199315923021037 14.214126227207448  5.000001081493335 14.214126227207448  C 6.780070570684566 14.214126227207448  8.228081320512013 12.75471138454336  8.228081320512013 10.960622608746124  C 8.228081320512013 10.467364257713172  8.624636706110891 10.067685722349848  9.114040660256006 10.067685722349848  C 9.603444614401122 10.067685722349848  10 10.467364257713172  10 10.960622608746124  Z " fill-rule="nonzero" fill="#808080" stroke="none" transform="matrix(1 0 0 1 19 17 )" />
  </g>
</svg>