<?xml version="1.0" encoding="utf-8"?>
<svg version="1.1" xmlns:xlink="http://www.w3.org/1999/xlink" width="16px" height="15px" xmlns="http://www.w3.org/2000/svg">
  <g transform="matrix(1 0 0 1 -17 0 )">
    <path d="M 1.939457046210426 0.16910821001497614  C 1.939457046210426 0.16910821001497614  1.9411676917001885 0.16910821001497614  1.9411676917001885 0.16910821001497614  C 11.551231532637559 -1.1421057251109568  16.93348169366299 5.359196105068567  15.866266928874301 13.173321794179477  C 15.729444516074734 14.168813385361117  14.994024647452568 14.999999999999998  13.926809882663875 14.999999999999998  C 13.926809882663875 14.999999999999998  8.359847522899537 14.999999999999998  8.359847522899537 14.999999999999998  C 7.292632758110845 14.999999999999998  6.420390476689112 14.178478343317026  6.420390476689112 13.173321794179477  C 6.420390476689112 13.173321794179477  6.420390476689112 10.497736616764985  6.420390476689112 10.497736616764985  C 6.452885798837028 9.31055650076552  5.247139341763579 9.064099573623185  4.727214187396907 9.064099573623185  C 4.727214187396907 9.064099573623185  1.939457046210426 9.064099573623185  1.939457046210426 9.064099573623185  C 0.8722422814217343 9.064099573623185  0 8.242577302458148  0 7.237420753320599  C 0 7.237420753320599  0 1.9957868958996101  0 1.9957868958996101  C 0 0.9906303467620604  0.8842141901696927 0.3140827137715508  1.939457046210426 0.16910821001497614  Z M 4.552764882966437 5.68780452194893  C 4.552764882966437 5.68780452194893  4.552764882966437 5.689415079439011  4.552764882966437 5.689415079439011  C 4.6793256145511855 5.699080046396122  4.8075975624932825 5.711966595195746  4.935868572581491 5.7264640465315315  C 6.764157964605884 5.940704159115706  8.051999512642187 6.630138498726915  8.835307801199114 7.593413563388863  C 9.62203664676296 8.55991028070278  9.938436814092404 9.83568642070834  9.817006928212095 11.211333408873662  C 9.808455527412121 11.304761422192314  9.79819342887781 11.404633048055937  9.784511188107556 11.506115202605796  C 9.698997181382083 12.168165475472701  10.198398749049707 12.770614828632011  10.901323907167795 12.851156221741505  C 11.604249065285883 12.931697614850998  12.243894856629868 12.461336097232692  12.32940886335534 11.799285824365787  C 12.346511664955287 11.672030419796325  12.36019390572554 11.5431632575765  12.372165866718076 11.4094645477031  C 12.54661443717594 9.450697891859512  12.059184778256272 7.591802698657749  10.870540117393208 6.129171012078996  C 9.678474899523227 4.664928460769129  7.81597904035202 3.629166537881467  5.247138200028413 3.326330900557876  C 5.091502703302665 3.3086117941698  4.930736065244618 3.292503367688155  4.763128608800592 3.279616745078674  C 4.056782893675586 3.2248485971881418  3.437662131490703 3.719372831339175  3.3795126063057377 4.38464475685805  C 3.3213630811207726 5.049916682376924  3.8464191678414306 5.633036374058398  4.552764882966437 5.68780452194893  Z " fill-rule="nonzero" fill="#ffffff" stroke="none" transform="matrix(1 0 0 1 17 0 )" />
  </g>
</svg>