<?xml version="1.0" encoding="utf-8"?>
<svg version="1.1" xmlns:xlink="http://www.w3.org/1999/xlink" width="30px" height="30px" xmlns="http://www.w3.org/2000/svg">
  <g transform="matrix(1 0 0 1 -3 -3 )">
    <path d="M 22.58491498434341 2.0910211201527047  C 22.663528696807415 2.27393804969679  22.777801037870073 2.4393745542999  22.92106659224192 2.5776773730011637  C 22.92106659224192 2.5776773730011637  27.421066699530282 7.075486539186758  27.421066699530282 7.075486539186758  C 27.559436903820913 7.218682323958515  27.724954550861224 7.332900087330411  27.907960603426947 7.411475515314211  C 28.090966655992666 7.490050943298011  28.287796747095506 7.531410257818869  28.48696585862555 7.53314024875204  C 28.686134970155592 7.534870239685213  28.883654204589824 7.4969360212586675  29.06799886388776 7.421551420610425  C 29.252343523185694 7.346166819962183  29.419821445967468 7.234841114058119  29.560660590187563 7.094070557788649  C 29.70149973440766 6.95330000151918  29.812878608898902 6.785903639638399  29.888299939353463 6.601648755256804  C 29.963721269808026 6.417393870875207  30.00167504389166 6.2199708273087495  29.999944210051158 6.020898710128273  C 29.998213376210664 5.8218265929477955  29.956832837215554 5.62509235710341  29.878219124751546 5.442175427559325  C 29.79960541228754 5.259258498015239  29.685333071224882 5.093821993412128  29.542067516853034 4.955519174710864  C 29.542067516853034 4.955519174710864  25.04206740956467 0.4577103101268425  25.04206740956467 0.4577103101268425  C 24.90369720527404 0.3145145253550856  24.738179558233725 0.20029677873883184  24.555173505668005 0.12172135075503161  C 24.37216745310229 0.0431459227712314  24.175337361999446 0.0017866056486689514  23.9761682504694 5.6614715496375306E-05  C 23.77699913893936 -0.0016733762176762007  23.57947990450513 0.03626057672029069  23.395135245207197 0.111645177368533  C 23.210790585909262 0.1870297780167753  23.043312663127484 0.29835519907490976  22.902473518907392 0.4391257553443799  C 22.761634374687297 0.5798963116138499  22.650255500196053 0.7472929750961997  22.57483416974149 0.9315478594777958  C 22.49941283928693 1.115802743859392  22.4614590652033 1.3132259884935653  22.463189899043797 1.5122981056740417  C 22.46492073288429 1.7113702228545182  22.5063012718794 1.908104190608619  22.58491498434341 2.0910211201527047  Z M 5.981566571749843 0.018744652855474317  C 6.3793128312662315 0.018744652855474317  6.760775432992587 0.17664066786651964  7.042066980411219 0.4577103101268425  C 7.323273568857278 0.7388648699851479  7.481246530562554 1.1201413997529996  7.481246530562556 1.517693958853503  C 7.481246530562554 1.9152465179540066  7.323273568857278 2.2965228131428583  7.042066980411219 2.5776773730011637  C 7.042066980411219 2.5776773730011637  2.5420663366810397 7.075486539186758  2.5420663366810397 7.075486539186758  C 2.259162982771706 7.348590096432076  1.880260247862583 7.499706878092953  1.4869653490058266 7.49629070280762  C 1.09367045014907 7.4928745275222886  0.7174517683375303 7.335198634794902  0.4393397786161847 7.057222084205372  C 0.16122778889483902 6.779245533615841  0.003474550842459635 6.403209833819769  5.6711086460060966E-05 6.010106467588779  C -0.003361128669539513 5.617003101357788  0.14782980250608455 5.238284756118267  0.4210664246038538 4.955519174710864  C 0.4210664246038538 4.955519174710864  4.921066699530285 0.4577103101268425  4.921066699530285 0.4577103101268425  C 5.202358246948916 0.17664066786651964  5.583820312233454 0.018744652855473817  5.981566571749843 0.018744652855474317  Z M 13.920906518004095 10.952437208786929  C 14.202211107664372 10.671269613038485  14.583742038667014 10.51331175504412  14.98156678632657 10.51331175504412  C 15.178549595708837 10.51331175504412  15.373603326793987 10.552091366733213  15.55559171570758 10.62743671728807  C 15.737580104621175 10.702782067842929  15.902938101547972 10.813217161062388  16.042225981765412 10.952437208786929  C 16.181513861982854 11.091657256511468  16.292004908505195 11.256935797291574  16.367386969742462 11.438835558780584  C 16.44276903097973 11.620735320269592  16.48156753734511 11.815694061174629  16.48156753734511 12.012580940925414  C 16.48156753734511 12.012580940925414  16.48156753734511 15.011120385049141  16.48156753734511 15.011120385049141  C 16.48156753734511 15.011120385049141  19.481566893614932 15.011120385049141  19.481566893614932 15.011120385049141  C 19.678569031666374 15.011090240068626  19.87364774082357 15.04984700701771  20.055662633315624 15.125178860902249  C 20.237677525807676 15.20051071478679  20.403064088261164 15.3109412923605  20.54237629276219 15.45016433934511  C 20.681688497263217 15.589387386329719  20.792196651250343 15.75467691881154  20.86759307068808 15.936591643089617  C 20.94298949012582 16.118506367367694  20.98179724173062 16.313484444284587  20.98179724173062 16.51039064329158  C 20.98179724173062 16.70729684229857  20.94298949012582 16.902272774493177  20.86759307068808 17.084187498771257  C 20.792196651250343 17.266102223049334  20.681688497263217 17.431391755531152  20.54237629276219 17.57061480251576  C 20.403064088261164 17.709837849500367  20.237677525807676 17.820268427074083  20.055662633315624 17.89560028095862  C 19.87364774082357 17.97093213484316  19.678569031666374 18.009687829431105  19.481566893614932 18.009657684450584  C 19.481566893614932 18.009657684450584  13.48156710819166 18.009657684450584  13.48156710819166 18.009657684450584  C 13.48156710819166 18.009657684450584  13.48156710819166 12.012580940925414  13.48156710819166 12.012580940925414  C 13.481567108191658 11.614949931905068  13.639601928343817 11.233604804535373  13.920906518004095 10.952437208786929  Z M 5.078566553081669 20.00818497514803  C 4.682012837249346 18.884668452743725  4.480116870956023 17.701771808697924  4.481566357173118 16.51039064329158  C 4.481536074049954 14.10746443782361  5.306498266613442 11.777298740154386  6.818621798005623 9.90920782895125  C 8.330745329397805 8.041116917748113  10.438442389689502 6.748248164028361  12.789568967570519 6.246609283430413  C 15.140695545451536 5.744970402832464  17.59284712595575 6.064944603610641  19.73632740345782 7.153071867856512  C 21.879807680959885 8.241199132102382  23.5847883483121 10.031573484440935  24.56641088882472 12.225066084255417  C 25.548033429337345 14.418558684069897  25.74684017442084 16.8823122965865  25.12961685966532 19.204694797082464  C 24.5123935449098 21.52707729757843  23.11652560511888 23.56742439407127  21.175225285893088 24.984843605063688  C 19.233924966667292 26.40226281605611  16.864775553101907 27.110901436271362  14.463605391111502 26.99236586102557  C 12.062435229121093 26.87383028577978  9.774679327599507 25.935299269185883  7.982566427768861 24.333577235917666  C 7.685536180389788 24.072694674877976  7.2974596534063725 23.939591324844105  6.902751967972563 23.963220157529854  C 6.508044282538754 23.9868489902156  6.1386359307440745 24.16529786841414  5.874882778522557 24.45975124796028  C 5.61112962630104 24.75420462750642  5.47436774582026 25.140841320934456  5.494346511229193 25.535558959309256  C 5.514325276638127 25.93027659768406  5.689428472564898 26.301145778784413  5.981566571749843 26.567489942146118  C 8.433270625669255 28.75757162925616  11.600392260560804 29.977998450214745  14.888479110919931 29.999704028324636  C 18.176565961279056 30.021409606434528  21.359540256489282 28.842900075601463  23.839972110747624 26.685376747278436  C 26.320403965005966 24.527853418955413  27.92774648866645 21.539660651316414  28.360311945922657 18.281666377724914  C 28.792877403178863 15.023672104133418  28.0209234481078 11.719885596938767  26.18934050057746 8.990411482843115  C 24.357757553047126 6.260937368747464  21.59248019081307 4.293445818059635  18.412537060082844 3.457224228927657  C 15.232593929352618 2.6210026397956794  11.856627717176144 2.9735473974688698  8.918290470082532 4.448687519324841  C 5.979953222988922 5.9238276411808135  3.6812750978773856 8.420138406078143  2.453706859438583 11.469072925919505  C 1.2261386209997802 14.518007445760867  1.1540836892505573 17.909931315268818  2.251066499973929 21.008198200935457  C 2.313586015000755 21.197792371446244  2.4133575333114274 21.37299726503227  2.544527531731785 21.523536361085448  C 2.675697530152142 21.67407545713862  2.835624481171357 21.796917240975638  3.014926922677205 21.88485343504083  C 3.1942293641830526 21.972789629106025  3.389296372203144 22.02404938710372  3.588684167592148 22.03562741169553  C 3.7880719629811517 22.04720543628734  3.9877650775823605 22.018868287857032  4.176049332047684 21.95227706952296  C 4.364333586513008 21.885685851188892  4.537417343033369 21.78218206893763  4.685146026257182 21.647838030573016  C 4.832874709480994 21.513493992208403  4.952273498082722 21.351014029164652  5.036338389786204 21.1699317084679  C 5.120403281489688 20.98884938777115  5.167441243397999 20.792811801289695  5.174692634932819 20.593316687905375  C 5.181944026467638 20.39382157452106  5.149262945932459 20.19488720548048  5.078566553081669 20.00818497514803  Z " fill-rule="nonzero" fill="#418cfd" stroke="none" transform="matrix(1 0 0 1 3 3 )" />
  </g>
</svg>