<?xml version="1.0" encoding="utf-8"?>
<svg version="1.1" xmlns:xlink="http://www.w3.org/1999/xlink" width="13px" height="13px" xmlns="http://www.w3.org/2000/svg">
  <g transform="matrix(1 0 0 1 -2 -2 )">
    <path d="M 12.999999999999998 6.487025948103792  C 12.999999999999998 10.085163007318695  10.084774653239258 13  6.486158853208423 13  C 3.0830448297278403 13  0.29238752715268324 10.389620600108376  0 7.0648036202984645  C 0.01730103750014824 6.743047126673574  0.27854661135487796 6.487025948103792  0.6038061031580209 6.487025948103792  C 0.7906573114595329 6.487025948103792  0.9584775286568333 6.570059776306152  1.0692041703077375 6.701530167204653  C 1.0726643778593283 6.706719788169353  1.0778546890578118 6.703259829830822  1.0778546890578118 6.689420840935317  C 1.7975778226646906 7.4540249792163715  2.8166088258262687 7.933200371717502  3.951556859436705 7.933200371717502  C 6.150518699306258 7.933200371717502  7.932525693817968 6.15143044599278  7.932525693817968 3.9527611443779107  C 7.932525693817968 2.8093147303212587  7.44809703980314 1.7886893804757023  6.676470793695818 1.0673320818486725  C 6.678200897471611 1.0656022082367345  6.685121101303147 1.0656021555225133  6.681660893751555 1.062142408298637  C 6.560553631250517 0.9497006251981713  6.484428643861254 0.7905521430893097  6.484428643861254 0.6106452967275086  C 6.484428643861254 0.2819693153569164  6.742214327007414 0.02075848385880014  7.067473818810556 0  C 10.391003228186186 0.295808389832477  12.999999999999998 3.0843646569166356  12.999999999999998 6.487025948103792  Z " fill-rule="nonzero" fill="#8f00d1" stroke="none" transform="matrix(1 0 0 1 2 2 )" />
  </g>
</svg>