<?xml version="1.0" encoding="utf-8"?>
<svg version="1.1" xmlns:xlink="http://www.w3.org/1999/xlink" width="10px" height="26px" xmlns="http://www.w3.org/2000/svg">
  <g transform="matrix(1 0 0 1 -7 -7 )">
    <path d="M 9.99539496001074 20.982174805633658  C 9.99539496001074 23.748949537558566  7.753533935793636 26  4.997698020503022 26  C 2.2418621052124084 26  0 23.74894926620215  0 20.98181878601317  C 0 19.982023973212364  0.2922321488219205 19.01672907620757  0.8448162059356588 18.18943533484714  C 1.0027985684703506 17.94544414308691  1.2766108951462662 17.783614213665874  1.5879707491319066 17.783614213665874  C 2.077149330799048 17.783614213665874  2.4735221010570623 18.181611484843113  2.4735221010570623 18.67279492434917  C 2.4735221010570623 18.850275386060865  2.420742936114583 19.023843821011887  2.3215611863880206 19.1710921419523  C 1.961318893722379 19.706378936567553  1.7711032443479622 20.332716867214366  1.7711032443479622 20.98181878601317  C 1.7711032443479622 22.768360653636663  3.2184482604299296 24.22163857863341  4.997698020503022 24.22163857863341  C 6.776947780576115 24.22163857863341  8.22429279665808 22.768360653636663  8.22429279665808 20.98181878601317  C 8.22429279665808 20.13638575001411  7.901952293731504 19.33647818027217  7.316779944164431 18.729345601871874  C 6.97672821151273 18.376518693159177  6.98593748074477 17.813490351776437  7.33732425989116 17.472044945306234  C 7.68871103903755 17.13059953883603  8.24944235506069 17.139847636919765  8.589494087712392 17.49267454563246  C 9.49629868559619 18.433427764671027  9.99539496001074 19.67258946579356  9.99539496001074 20.982174805633658  Z M 9.287663011389151 11.827881379338905  C 9.229020629268446 11.839862547465716  9.169333017588118 11.845939417901379  9.109489041626318 11.84602101317306  C 8.761290252751836 11.84602101317306  8.437887739502617 11.63901921186741  8.296199523194591 11.307532653778933  C 8.017158219553172 10.653555952607977  7.552994848841184 10.096257268072923  6.961319501782236 9.704806131285741  C 6.369644154723289 9.313354994498562  5.676509088359907 9.104988296048505  4.967943624797773 9.105566497017417  C 4.5106449120685985 9.105566497017424  4.0653898720361 9.189860044170144  3.644221636899299 9.355959003639349  C 3.1890482284973274 9.535573513981282  2.675074114389193 9.3107893534854  2.496192734544091 8.853750454626367  C 2.3173113546989894 8.396711555767334  2.541178556750199 7.880630961387401  2.9963519651521704 7.701016451045465  C 3.6247391963707964 7.453112876369263  4.288194388142605 7.3272045329379925  4.967943624797773 7.3272045329379925  C 6.170876548823045 7.3272045329379925  7.307569999310325 7.726980036642299  8.22535541504058 8.425164700821615  C 8.22535541504058 8.425164700821615  8.228897836647342 0.8888252337756415  8.228897836647342 0.8888252337756415  C 8.229252057180194 0.39799747469455293  8.625624295055939 0  9.114448648074845 0  C 9.603981796201253 0.0003556722763234225  10 0.3987084285098575  10 0.8895361875909461  C 10 0.8895361875909461  9.995040393551474 10.957196322110253  9.995040393551474 10.957196322110253  C 9.994686173018621 11.37902363904737  9.69926727571023 11.742875699666431  9.287663011389151 11.827881379338905  Z " fill-rule="nonzero" fill="#808080" stroke="none" transform="matrix(1 0 0 1 7 7 )" />
  </g>
</svg>