<?xml version="1.0" encoding="utf-8"?>
<svg version="1.1" xmlns:xlink="http://www.w3.org/1999/xlink" width="9px" height="9px" xmlns="http://www.w3.org/2000/svg">
  <g transform="matrix(1 0 0 1 -5 -5 )">
    <path d="M 1.3180193446060968 1.3180198476216543  C 0.47410562430730413 2.1619335126610357  0 3.3065255825176445  0 4.499999705340314  C 0 5.6934738281629835  0.47410562430730413 6.838066487338964  1.3180193446060968 7.681980152378347  C 2.1619330649048893 8.525893817417726  3.3065257990287233 8.999999999999998  4.5 9  C 5.693474200971277 8.999999999999998  6.838066345775699 8.525893817417726  7.681980066074493 7.681980152378347  C 8.525893786373285 6.838066487338964  8.999999999999998 5.6934738281629835  9 4.499999705340314  C 8.999999999999998 3.3065255825176445  8.525893786373285 2.1619335126610357  7.681980066074493 1.3180198476216543  C 6.838066345775699 0.47410618258227305  5.693474200971277 0  4.5 0  C 3.3065257990287233 0  2.1619330649048893 0.47410618258227305  1.3180193446060968 1.3180198476216543  Z " fill-rule="nonzero" fill="#ffa600" stroke="none" transform="matrix(1 0 0 1 5 5 )" />
  </g>
</svg>