<?xml version="1.0" encoding="utf-8"?>
<svg version="1.1" xmlns:xlink="http://www.w3.org/1999/xlink" width="16px" height="31px" xmlns="http://www.w3.org/2000/svg">
  <g>
    <path d="M 12.557771761576571 3.587495916334482  C 12.557771761576571 3.587495916334482  12.559441951465919 3.5891569033404958  12.559441951465919 3.5891569033404958  C 16.705637711002208 4.399700029423649  17.361882518034207 -0.21939924988810927  12.88839929067889 0.008150762521287741  C 9.914426496078407 0.15929712495892703  6.579769920513899 0.39349092637318683  4.10674691901482 2.5161836911234765  C 3.73270428633501 2.758682249986061  3.2918683107505498 3.0842282187439345  2.8393435140919485 3.511092098062258  C 2.4753198709042588 3.8549085278851813  1.9626811372929371 4.351532356651895  1.5051468458882762 5.118890770981334  C 1.2980875306581685 5.466029095616065  1.149472320798761 5.843064790357938  0.8522420205157221 6.597135625440149  C 0.580059213868946 7.2897513669038165  0.4364535783794492 7.651838020191129  0.3062065955461125 8.138496085322203  C 0.013985790009133683 9.224756718386011  -0.004382372789104447 10.134957005624258  0.000627126622415579 10.571786608978114  C 0.01231595889365964 11.362398366190423  0.013985770103171025 12.064979000087312  0.37133008696278086 12.890470613223489  C 0.7270045722403706 13.717623213365677  1.1177455008344181 14.0448298572787  1.2212751584494719 14.122894459606377  C 1.5769496437270618 14.391968196763472  1.9660207009271642 14.493286844875964  2.2448828339020204 14.571351447203641  C 2.588868458293545 14.666025538440392  2.8727401457323487 14.694261471090273  3.3670107717533755 14.742428990411602  C 3.9013573955548075 14.795579356900655  3.9347542262548343 14.765681412591919  4.2787398506463585 14.815509884269165  C 4.596008149819601 14.86201645618459  5.402537959725221 14.97994484565686  5.4225759573713015 15.205833910660353  C 5.437604456538954 15.385216408698437  4.960031673571514 15.567920692648023  4.649442700726353 15.68584806736748  C 4.191908409321692 15.860247703387799  3.958131669343488 15.846960163740683  3.3085665469468992 16.089458722603265  C 3.2033670577498254 16.129321497470055  3.1282246066999813 16.159218073099993  3.0180156128038655 16.20572464501542  C 2.445262822804048 16.441579394454333  2.159721343595149 16.559507442375654  1.9109161990026158 16.718958541842817  C 1.610346235555537 16.911628619128123  1.131104213208466 17.30693344833137  0.7570615805286562 18.12578127184393  C 0.6184654298322382 18.536035677103218  0.45315190912912134 19.125673035801853  0.3729999185448009 19.848185830571783  C -0.024420396095214496 23.36939781589708  1.9977475208915065 26.146504492175143  2.5788494688014243 26.883965853198315  C 5.432594389496467 30.5064955114834  9.65727187508037 30.87356634349213  11.986689121654177 30.969901382134783  C 13.255762318347143 31.023051748623836  15.982599959184814 31.222365387832134  15.982599959184814 29.10631641270546  C 15.982599959184814 29.10631641270546  15.982599959184814 25.262880551434648  15.982599959184814 25.262880551434648  C 15.982599959184814 25.262880551434648  16.05774242018764 23.97896678106721  14.741913859574263 23.814532829482317  C 13.426085298960885 23.651759825303326  12.624565801189913 23.457428464011176  12.769841288167394 22.22334339302162  C 13.021986095923966 20.09068486463569  15.982599959184814 22.612004848402396  15.982599959184814 19.075844296823863  C 15.982599959184814 19.075844296823863  15.982599959184814 8.291303088264895  15.982599959184814 8.291303088264895  C 15.982599959184814 8.291303088264895  16.338273966719303 6.060648821331091  13.833524204973767 6.017464149177488  C 10.146532568424158 5.954348088352987  6.965501692763251 5.869639156850199  6.250813059044032 10.671442661330133  C 5.94189391778089 12.74762889871512  3.6391936381180394 11.898883705095416  3.8145261134778417 10.937194246274707  C 4.213616259699877 5.90617960377898  6.568080343013178 3.587495916334482  12.557771761576571 3.587495916334482  Z M 9.809227783213876 11.315890413221169  C 9.809227783213876 11.315890413221169  9.809227783213876 11.322534361245221  9.809227783213876 11.322534361245221  C 9.792529451220082 10.636562409405167  10.338563797535338 10.068518887875  11.026535046318388 10.05190939772842  C 11.716176166495382 10.035299907581837  12.287259347611139 10.578429131398215  12.303957679604933 11.262740096232253  C 12.303957679604933 11.262740096232253  12.447563434530204 16.57279421972066  12.447563434530204 16.57279421972066  C 12.447563434530204 16.594386555797463  12.455911989040812 16.718958343842267  12.462591321589505 16.848512360303076  C 12.477619820757157 17.11094230783656  12.494318457561004 17.393302614438085  12.475950292741068 17.70390007634288  C 12.389118970852177 19.14726467887673  11.782970544510091 20.492634334864903  8.854083003564522 20.318234698844588  C 7.984099913281665 20.266745279761437  7.479810178332742 20.23186530008723  7.1091072088169724 20.205290116842704  C 6.58644940608968 20.16874923926273  6.312596767860883 20.15047814119279  6.133924609431079 20.148817192240006  C 6.102197779513755 20.148817192240006  6.080489973923986 20.143835308468702  6.065461474756333 20.135530563395417  C 6.065461474756333 20.135530563395417  6.065461474756333 20.21691670908392  6.065461474756333 20.21691670908392  C 6.067131307893507 21.902779870480355  6.628195235452105 23.254793434892473  7.538254283703442 24.17828106377729  C 8.436624550692564 25.091803008226687  9.688998476079124 25.605035028998877  11.084978952629463 25.619983570502054  C 11.084978952629463 25.619983570502054  11.16346131566788 25.619983570502054  11.16346131566788 25.619983570502054  C 11.853102435844875 25.619983570502054  12.410826900854213 26.176401703881847  12.410826900854213 26.860712668715887  C 12.410826900854213 27.545023633549928  11.853102435844875 28.101441766929714  11.16346131566788 28.101441766929714  C 11.16346131566788 28.101441766929714  11.064941769883728 28.101441766929714  11.064941769883728 28.101441766929714  C 8.99100895441861 28.079849430852917  7.117456406538997 27.302524441085584  5.758212145169249 25.920614932170274  C 4.4073170815215255 24.54867102849017  3.575739803795187 22.59705659895004  3.570730304383667 20.21691670908392  C 3.570730304383667 20.21691670908392  3.570730304383667 20.09566687525109  3.570730304383667 20.09566687525109  C 3.5790794703805644 19.854829263794407  3.6291747481557324 19.417999977241436  3.9030273863845286 18.987814203111306  C 4.37225049886333 18.252013829094146  5.177110515754734 18.03609088412728  5.577870493558789 17.92812920374327  C 5.985309797690924 17.81850656605333  6.322616095754369 17.813523520575682  6.997228691881258 17.80854067371733  C 8.441634324122102 17.796914030738474  9.001028501277684 17.833455162006654  9.001028501277684 17.833455162006654  C 9.26987164476042 17.85006465215324  9.829265324266936 17.888265456198784  9.956172643936235 17.650749759353964  C 9.972870975930029 17.620852676347617  9.979550563212836 17.58763466130714  9.981220396350011 17.55441568101397  C 9.99123939517305 17.38832078202317  9.979550257469691 17.182362848289866  9.967861425198448 16.989692771004552  C 9.962851925786929 16.896679627173707  9.95617256742269 16.806987982153565  9.952832901148344 16.625944536709575  C 9.952832901148344 16.625944536709575  9.809227783213876 11.315890413221169  9.809227783213876 11.315890413221169  Z " fill-rule="nonzero" fill="#ffffff" stroke="none" />
  </g>
</svg>