<?xml version="1.0" encoding="utf-8"?>
<svg version="1.1" xmlns:xlink="http://www.w3.org/1999/xlink" width="10px" height="26px" xmlns="http://www.w3.org/2000/svg">
  <g transform="matrix(1 0 0 1 -19 -7 )">
    <path d="M 10 20.981820956864514  C 10 23.748595688789422  7.758219002315626 26  5.002480796258851 26  C 2.2467425902020763 26  0.004959667590900646 23.748951437053492  0.004959667590900646 20.981820956864514  C 0.004959667590900646 19.672235617024416  0.5043930361724958 18.43307174505054  1.4108112668577943 17.492318526011974  C 1.7508509428431032 17.139491617299278  2.3115612969624464 17.130245690066886  2.662935617553963 17.471691096537093  C 3.0143099381454794 17.813136503007296  3.0235199618162762 18.376164844390036  2.6834802858309676 18.728991753102733  C 2.0983286837770625 19.33612433150303  1.7759996095583408 20.136031901244966  1.7759996095583408 20.981464937244027  C 1.7759996095583408 22.768006804867518  3.22329412017777 24.22128255901292  5.002480796258851 24.22128255901292  C 6.781667472339933 24.22128255901292  8.228960091284655 22.768006804867518  8.228960091284655 20.981464937244027  C 8.228960091284655 20.332007338020254  8.038396969991123 19.706022916947067  7.678521665944949 19.170736122331814  C 7.579566109882844 19.023678700631503  7.5266476716779005 18.850275097744664  7.526565058152244 18.67279492434917  C 7.526565058152244 18.181611484843113  7.922923774859579 17.783614213665874  8.412085012509916 17.783614213665874  C 8.72626748826243 17.783614213665874  9.002551021304367 17.94793577163704  9.159465151136162 18.195839346313242  C 9.70919595501576 19.02171036597381  10 19.98451583919936  10 20.981820956864514  Z M 1.703741959571777 11.30753482463028  C 1.5624129745184934 11.63866573621334  1.2390206524396876 11.845667164403915  0.8908342090886432 11.845667164403915  C 0.8308751808711261 11.84558558704434  0.7710740103744306 11.839508835434765  0.7123141645791586 11.82752753056976  C 0.300724493847301 11.742521850897285  0.004959667590900646 11.379023299851848  0.004959667590900646 10.956840302489766  C 0.004959667590900646 10.956840302489766  0 0.8895367303037823  0 0.8895367303037823  C -0.00035397075372961296 0.39835329079772774  0.3960044330586046 0  0.8851656707089415 0  C 1.3743272461583331 0  1.7706859709807634 0.39764179426958707  1.7710401789545893 0.8888252337756415  C 1.7710401789545893 0.8888252337756415  1.7745835559203906 8.42516578624729  1.7745835559203906 8.42516578624729  C 2.692690647300818 7.726625441643006  3.829342377123837 7.3272045329379925  5.0318785021654815 7.3272045329379925  C 5.711957854136099 7.3272045329379925  6.375390603803109 7.453112876369263  7.0034013392192165 7.701016451045465  C 7.458558609271022 7.880630961387401  7.682417874023545 8.396711555767334  7.5035428364873145 8.853750454626367  C 7.324667798951083 9.3107893534854  6.8107108270380206 9.535573513981282  6.355553556986214 9.355959003639349  C 5.93475447062186 9.189860044170144  5.489161001190999 9.105566497017417  5.0318785021654815 9.105566497017417  C 3.582105222081529 9.105566497017417  2.2757878365748714 9.969851341769818  1.703741959571777 11.30753482463028  Z " fill-rule="nonzero" fill="#418cfd" stroke="none" transform="matrix(1 0 0 1 19 7 )" />
  </g>
</svg>