<?xml version="1.0" encoding="utf-8"?>
<svg version="1.1" xmlns:xlink="http://www.w3.org/1999/xlink" width="10px" height="16px" xmlns="http://www.w3.org/2000/svg">
  <g transform="matrix(1 0 0 1 -7 -17 )">
    <path d="M 10 10.960620772035558  C 10 13.739440282192891  7.757106114179306 16  5.000000540746666 16  C 2.2428949673140264 16  0 13.739440282192891  0 10.960620772035558  C 0 10.467362454606162  0.396555385598878 10.067683946471208  0.8859593397439931 10.067683946471208  C 1.3753632938891083 10.067683946471208  1.7719192202346536 10.467362454606162  1.7719192202346536 10.960620772035558  C 1.7719192202346536 12.754709425609287  3.2199310515554362 14.2141263488713  5.000000540746666 14.2141263488713  C 6.780070029937898 14.2141263488713  8.228081861258682 12.754709425609287  8.228081861258682 10.960620772035558  C 8.228081861258682 10.960620772035558  8.228081861258682 0.8929368255643497  8.228081861258682 0.8929368255643497  C 8.228081861258682 0.3996785081349548  8.624636706110891 0  9.114040660256006 0  C 9.603444614401122 0  10 0.3996785081349548  10 0.8929368255643497  C 10 0.8929368255643497  10 10.960620772035558  10 10.960620772035558  Z " fill-rule="nonzero" fill="#418cfd" stroke="none" transform="matrix(1 0 0 1 7 17 )" />
  </g>
</svg>