<?xml version="1.0" encoding="utf-8"?>
<svg version="1.1" xmlns:xlink="http://www.w3.org/1999/xlink" width="11px" height="16px" xmlns="http://www.w3.org/2000/svg">
  <g transform="matrix(1 0 0 1 -19 -3 )">
    <path d="M 5.761356073106474 9.63688713285171  C 5.697764178972646 9.651296354849636  5.63382245431548 9.658140603061582  5.5709293756837654 9.658140603061582  C 5.170510096454815 9.658140603061582  4.8095735244712055 9.37283883350791  4.719077373041662 8.953170262813538  C 4.614255572545307 8.467579505209308  4.910902392899122 7.986671096076159  5.381901667134869 7.878601932702062  C 6.319707380907096 7.663544305145546  7.103423587115265 6.98847277098384  7.479035038893868 6.073487201491524  C 7.634520702965736 5.694884890892581  7.713137486523389 5.292146547035966  7.713137486523389 4.876800738754047  C 7.713137486523389 3.1808352689097026  6.374912393556353 1.8011527229016158  4.729908873788753 1.8011527229016158  C 3.084905354021153 1.8011527229016158  1.7470300082725685 3.1808352689097026  1.7470300082725685 4.876800738754047  C 1.7470300082725685 5.374279135935348  1.356044707082827 5.777377100204854  0.8735150041362842 5.777377100204854  C 0.3909853011897415 5.777377100204854  0 5.374279135935348  0 4.876800738754047  C 0 2.1876796684951154  2.1219424987655127 0  4.729908873788753 0  C 7.338224729454822 0  9.460167494795957 2.1876796684951154  9.460167494795957 4.876800738754047  C 9.460167494795957 5.534581721402739  9.33508143176459 6.173270391745082  9.088051382596895 6.775215598758711  C 8.493012937787453 8.225503710775591  7.249476239484561 9.295388593079608  5.761356073106474 9.63688713285171  Z M 10.999999999999998 15.09942363854919  C 10.999999999999998 15.596541796940889  10.609014698810258 15.999999999999998  10.126484995863715 15.999999999999998  C 10.126484995863715 15.999999999999998  8.990915490486545 15.999999999999998  8.990915490486545 15.999999999999998  C 8.508385787540002 15.999999999999998  8.117400486350261 15.59690203573049  8.117400486350261 15.09942363854919  C 8.117400486350261 14.601945241367888  8.508385787540002 14.198847277098384  8.990915490486545 14.198847277098384  C 8.990915490486545 14.198847277098384  10.126484995863715 14.198847277098384  10.126484995863715 14.198847277098384  C 10.609014698810258 14.198847277098384  10.999999999999998 14.601945241367888  10.999999999999998 15.09942363854919  Z " fill-rule="nonzero" fill="#418cfd" stroke="none" transform="matrix(1 0 0 1 19 3 )" />
  </g>
</svg>