<?xml version="1.0" encoding="utf-8"?>
<svg version="1.1" xmlns:xlink="http://www.w3.org/1999/xlink" width="10px" height="18px" xmlns="http://www.w3.org/2000/svg">
  <g transform="matrix(1 0 0 1 -4 -9 )">
    <path d="M 5.545304888687898 17.970526931251058  C 5.368458948683065 17.990411965874603  5.185049556012357 18  5.000546367579193 18  C 4.886416919468312 18  4.771558471234582 17.99609340418729  4.659252184134999 17.988281426375064  C 3.396535645644015 17.905545481806328  2.223154101028373 17.363679704782875  1.3546035196309536 16.4628165923906  C 0.4809481291305834 15.556982243036567  0 14.37346624621912  0 13.130296557237044  C 0 12.125392160309643  0.31212388545464903 11.160259013636752  0.9020965492714506 10.339646227332334  C 1.1649332420328258 9.973588347053326  1.4780230248311268 9.64431733244719  1.8326345355052132 9.361017459140738  C 1.4651559153359481 9.04017131969229  1.1434843329374857 8.672816887985796  0.876207795051846 8.26876111416874  C 0.30300814994596414 7.40305196172265  0 6.398502324184973  0 5.364480498362667  C 0 4.09219331275766  0.46563349317830593 2.858255901639404  1.3112123640646365 1.8899257213215164  C 2.1465815471972567 0.9333135050763508  3.3035548165807316 0.2898908513602256  4.56809448130911 0.07754708899986118  C 4.843755372568164 0.03138540337065218  5.125979907749562 0.005108466397626236  5.40674562549852 0.0001372077417401945  C 5.910300791209247 -0.008384949727296509  6.325614602324522 0.3811489708591297  6.33473037260711 0.8715281410842769  C 6.343846142889699 1.361552213279581  5.943482328569662 1.7663540451450324  5.4399271628589325 1.7752312927070344  C 5.251413030633083 1.7787821917847477  5.062533789802489 1.7961823770108751  4.8776659622122835 1.8270751986959617  C 4.032451730482993 1.9687560701241513  3.259070230377948 2.399834436587726  2.6997265602744704 3.040416653171231  C 2.134184163596919 3.6877455291376795  1.8227893478129273 4.512974928470176  1.8227893478129273 5.364480498362667  C 1.8227893478129273 6.743294654711697  2.6494071911765755 8.017001893795957  3.928896713604575 8.608936763939361  C 4.090024379566787 8.683525391258774  4.225139070230934 8.802512701412608  4.317499263349618 8.95115617456227  C 4.409859456468302 9.099799647711931  4.455405906209537 9.271566467244261  4.4484956197121415 9.445173592644775  C 4.434275018592911 9.799908397095004  4.204193226510868 10.112388432378594  3.8636280431895225 10.23951061475734  C 3.2696444181930833 10.461086705777545  2.7617137912412937 10.84777962176939  2.3948951797693994 11.358043807569574  C 2.0204193198691742 11.87860559918712  1.8224249172993106 12.491489830802754  1.8224249172993106 13.130296557237044  C 1.8224249172993106 14.75305743866219  3.1230626762619647 16.10879040085749  4.783226715616454 16.217092819420714  C 4.784685238829068 16.217092819420714  4.786143584097094 16.217448256090677  4.787602107309708 16.217448256090677  C 4.971376034815743 16.230231493087917  5.165724254458627 16.225970500865365  5.34366409454763 16.206440555805663  C 5.344757986957091 16.206440555805663  5.346216732804191 16.2060851191357  5.34731062521365 16.2060851191357  C 6.18742004783999 16.11766773307952  6.943299111824418 15.713576207331798  7.476389353777347 15.068377851816383  C 7.5425592681550935 14.988200892110523  7.604622345353215 14.904888946095657  7.662351290095146 14.818748610070442  C 7.9989055122368535 14.317006573802415  8.176845943482224 13.733239195393482  8.176845943482224 13.130296557237044  C 8.176845943482224 12.995717485551655  8.168094403763304 12.860427972292495  8.150227493661692 12.728334527553988  C 8.08568784075644 12.242216465958931  8.437921077203185 11.796933712671475  8.937465281734275 11.73408280060978  C 9.436644847108324 11.67087679898425  9.893891900478978 12.01424935540982  9.95843155338423 12.500367417004876  C 9.986143494695561 12.707739925471483  10 12.919727895589755  10 13.12994112056708  C 10 14.078741315611751  9.719598504121237 14.998068916003646  9.189425305876822 15.788499047051651  C 9.09852462566866 15.924339096019917  9.00068017930037 16.055651416525603  8.896261822014585 16.181939265842672  C 8.05906951264457 17.195365880030252  6.86891470590068 17.830621507642068  5.545304888687898 17.970526931251058  Z " fill-rule="nonzero" fill="#418cfd" stroke="none" transform="matrix(1 0 0 1 4 9 )" />
  </g>
</svg>