<?xml version="1.0" encoding="utf-8"?>
<svg version="1.1" xmlns:xlink="http://www.w3.org/1999/xlink" width="11px" height="16px" xmlns="http://www.w3.org/2000/svg">
  <g transform="matrix(1 0 0 1 -6 -3 )">
    <path d="M 6.280773111338898 8.953011449090612  C 6.190274082474479 9.373049724723403  5.8293263673050015 9.658359367007087  5.429243781368466 9.658359367007087  C 5.366348702975049 9.658359367007087  5.302404603652332 9.651154374088346  5.238461270758902 9.63674482735117  C 3.750293787795566 9.295238591259379  2.506718616071783 8.225329597062839  1.9116612512934175 6.7750088000424915  C 1.664623347505752 6.17305002704772  1.539532240874923 5.534346412959765  1.539532240874923 4.876550605964433  C 1.539532240874923 2.1873689312429994  3.6615424759594455 0  6.269941266191106 0  C 8.878340056422767 0  10.999999999999998 2.1877292468613416  10.999999999999998 4.876550605964433  C 10.999999999999998 5.374040214768448  10.60900226695848 5.777147263617941  10.126457221394896 5.777147263617941  C 9.64391217583131 5.777147263617941  9.252914442789791 5.374040214768448  9.252914442789791 4.876550605964433  C 9.252914442789791 3.180546914309677  7.914647599085432 1.8011935901473057  6.269941266191106 1.8011935901473057  C 4.62523493329678 1.8011935901473057  3.2866177980851305 3.180907229928019  3.2866177980851305 4.876550605964433  C 3.2866177980851305 5.2922660217630915  3.365236015022353 5.6946526455061175  3.520726622949459 6.073263488628862  C 3.8963500177496537 6.988269679062811  4.680093275837766 7.663357526607804  5.617928808279888 7.878420000897354  C 6.088943058508714 7.986491599815775  6.38559824477151 8.467769960327491  6.280773111338898 8.953011449090612  Z M 2.882691702565043 15.099403342346493  C 2.882691702565043 15.596892951150506  2.491344011246359 16.000000000000004  2.009148390791739 16.000000000000004  C 2.009148390791739 16.000000000000004  0.8735427786051039 16.000000000000004  0.8735427786051039 16.000000000000004  C 0.390997733041519 16.000000000000004  0 15.596892951150506  0 15.099403342346493  C 0 14.60191373354248  0.390997733041519 14.198806684692984  0.8735427786051039 14.198806684692984  C 0.8735427786051039 14.198806684692984  2.009148390791739 14.198806684692984  2.009148390791739 14.198806684692984  C 2.491693436355324 14.198806684692984  2.882691702565043 14.60191373354248  2.882691702565043 15.099403342346493  Z " fill-rule="nonzero" fill="#418cfd" stroke="none" transform="matrix(1 0 0 1 6 3 )" />
  </g>
</svg>